<?xml version="1.0" standalone="no"?>
<!DOCTYPE svg PUBLIC "-//W3C//DTD SVG 20010904//EN"
 "http://www.w3.org/TR/2001/REC-SVG-20010904/DTD/svg10.dtd">
<svg version="1.0" xmlns="http://www.w3.org/2000/svg"
 width="40" height="40" viewBox="0 0 512.000000 512.000000"
 preserveAspectRatio="xMidYMid meet">

<g transform="translate(0.000000,512.000000) scale(0.100000,-0.100000)"
fill="#FFBC5E" stroke="none">
<path d="M245 5111 c-90 -22 -172 -90 -215 -176 l-25 -50 0 -1365 0 -1365 23
-45 c35 -72 75 -114 144 -151 l63 -34 523 -3 522 -3 0 -214 0 -215 -105 0
-105 0 0 -105 0 -105 425 0 425 0 0 105 0 105 -212 2 -213 3 -3 212 -2 213
110 0 110 0 0 105 0 105 -701 0 c-618 0 -705 2 -734 16 -69 33 -65 -58 -65
1374 0 1432 -4 1341 65 1374 30 14 216 16 1854 16 1965 0 1867 3 1905 -51 14
-21 16 -113 16 -1001 l0 -978 110 0 110 0 -2 993 c-3 939 -4 995 -22 1040 -25
66 -104 149 -168 178 l-53 24 -1875 2 c-1031 0 -1888 -2 -1905 -6z"/>
<path d="M1499 4677 c-165 -62 -254 -233 -205 -392 l16 -50 -213 -212 -212
-213 75 -75 75 -75 211 211 211 211 72 -17 c67 -17 75 -17 142 0 l72 17 157
-157 158 -158 -14 -40 c-19 -53 -18 -143 3 -207 21 -66 89 -143 157 -177 73
-37 180 -43 258 -13 147 55 233 223 193 375 l-16 59 158 158 159 159 63 -17
c42 -10 80 -14 110 -9 116 17 222 99 261 203 30 78 24 185 -13 258 -118 231
-455 232 -566 1 -40 -83 -47 -139 -27 -218 l17 -63 -158 -158 -158 -158 -68
16 c-66 17 -102 14 -192 -11 -16 -5 -53 27 -177 152 l-158 158 16 50 c45 143
-27 303 -168 376 -54 28 -184 36 -239 16z m152 -213 c93 -48 55 -194 -50 -194
-104 0 -146 137 -57 191 38 23 67 24 107 3z m1515 -15 c50 -46 37 -141 -22
-168 -97 -44 -187 45 -143 142 26 58 116 72 165 26z m-745 -748 c49 -50 36
-133 -26 -166 -63 -35 -140 4 -152 78 -15 97 108 158 178 88z"/>
<path d="M430 3200 l0 -110 105 0 105 0 0 110 0 110 -105 0 -105 0 0 -110z"/>
<path d="M2917 3189 c-430 -63 -790 -360 -934 -772 -98 -281 -80 -596 51 -873
57 -119 112 -199 205 -297 196 -206 438 -326 728 -358 273 -31 585 56 806 225
l44 34 112 -112 112 -112 -22 -20 c-45 -40 -79 -96 -79 -133 0 -33 21 -57 363
-399 345 -345 365 -364 406 -369 l43 -6 184 184 c177 177 184 186 184 224 0
39 -8 48 -368 407 -346 347 -369 368 -403 368 -37 0 -93 -33 -133 -79 l-20
-22 -112 112 -112 112 34 44 c124 162 203 369 225 588 48 468 -209 928 -639
1144 -196 99 -460 142 -675 110z m382 -229 c327 -79 587 -325 687 -655 26 -83
28 -104 28 -260 1 -149 -2 -180 -22 -249 -78 -269 -252 -480 -499 -605 -202
-101 -494 -121 -711 -47 -476 162 -743 655 -617 1140 82 316 344 580 662 667
155 43 317 46 472 9z m1489 -2627 l-73 -73 -257 257 -258 258 72 72 73 73 257
-257 258 -258 -72 -72z"/>
<path d="M3090 2668 l0 -105 61 -7 c125 -14 260 -83 339 -174 52 -58 117 -189
125 -249 3 -27 9 -60 11 -75 l6 -28 105 0 106 0 -7 71 c-35 348 -326 640 -666
666 l-80 6 0 -105z"/>
<path d="M430 2746 c0 -164 14 -216 78 -288 25 -27 68 -61 96 -76 48 -25 61
-27 204 -30 l152 -4 0 105 0 105 -130 4 c-126 3 -130 4 -157 31 -27 27 -28 31
-31 157 l-4 130 -104 0 -104 0 0 -134z"/>
</g>
</svg>
